<?xml version="1.0" standalone="no"?>
<!DOCTYPE svg PUBLIC "-//W3C//DTD SVG 20010904//EN"
 "http://www.w3.org/TR/2001/REC-SVG-20010904/DTD/svg10.dtd">
<svg version="1.0" xmlns="http://www.w3.org/2000/svg"
 width="600.000000pt" height="600.000000pt" viewBox="0 0 600.000000 600.000000"
 preserveAspectRatio="xMidYMid meet">
<metadata>
Created by potrace 1.11, written by Peter Selinger 2001-2013
</metadata>
<g transform="translate(0.000000,600.000000) scale(0.100000,-0.100000)"
fill="#000000" stroke="none">
<path d="M2895 5803 c-11 -3 -24 -9 -29 -14 -6 -5 -19 -9 -31 -9 -11 0 -64
-14 -118 -30 -53 -17 -98 -29 -100 -28 -2 2 -11 -3 -21 -11 -9 -8 -19 -11 -23
-8 -3 4 -12 2 -20 -4 -7 -6 -13 -8 -13 -4 0 4 -7 2 -15 -5 -9 -7 -26 -14 -38
-15 -12 -1 -29 -5 -37 -8 -8 -3 -109 -36 -225 -72 -256 -81 -273 -86 -288 -89
-7 -2 -20 -6 -29 -9 -10 -4 -26 -10 -35 -14 -10 -3 -26 -8 -36 -9 -42 -9 -380
-124 -393 -135 -11 -9 -14 -45 -14 -160 0 -121 -3 -150 -16 -163 -8 -9 -22
-16 -30 -16 -8 0 -14 -4 -14 -9 0 -5 -8 -12 -18 -15 -17 -6 -25 -17 -57 -85
-19 -39 -25 -62 -27 -106 -1 -27 -4 -30 -32 -28 -31 2 -97 23 -106 34 -12 15
-82 1 -101 -20 -18 -19 -20 -31 -15 -104 2 -45 10 -111 16 -147 6 -36 13 -90
16 -120 4 -30 10 -60 16 -67 5 -7 7 -17 3 -23 -3 -5 -2 -10 4 -10 6 0 13 -17
17 -37 4 -21 10 -42 13 -48 4 -5 7 -17 6 -25 0 -8 2 -17 6 -20 4 -3 9 -12 11
-20 2 -7 25 -37 52 -66 34 -35 55 -50 68 -46 24 6 82 66 68 70 -5 2 -10 10
-10 19 0 8 -8 27 -18 41 -10 15 -24 43 -31 62 -8 19 -20 51 -29 70 -9 19 -18
61 -20 93 -2 31 -8 60 -13 63 -5 3 -9 39 -9 80 l0 74 38 -4 c21 -2 49 -9 61
-16 13 -6 25 -9 28 -6 4 3 11 2 17 -2 10 -8 50 -21 121 -39 17 -4 235 -8 485
-9 443 -1 457 -2 525 -23 79 -26 167 -71 303 -155 102 -64 139 -74 180 -53 15
7 67 35 116 61 114 60 260 123 342 146 102 29 207 34 492 20 309 -14 486 -3
612 40 19 6 49 13 65 16 30 4 66 11 75 14 3 1 8 2 13 1 4 0 7 4 7 11 0 6 3 8
7 4 10 -10 14 -116 4 -116 -4 0 -6 -25 -5 -55 1 -30 -2 -58 -7 -61 -5 -3 -9
-20 -9 -38 0 -18 -5 -47 -11 -65 -13 -36 -3 -53 44 -78 27 -14 32 -13 55 4 38
29 60 72 61 121 1 24 5 51 10 60 5 10 10 42 12 72 1 30 5 60 8 65 3 6 7 56 7
112 2 98 1 102 -26 128 -30 28 -61 38 -71 22 -4 -5 -20 -9 -35 -9 -16 0 -47
-8 -69 -18 -22 -10 -60 -23 -85 -30 -25 -6 -59 -16 -76 -21 -17 -5 -47 -9 -68
-9 -20 0 -69 -5 -107 -12 -84 -13 -455 7 -457 26 -8 66 -14 131 -17 181 -2 33
-4 60 -5 60 -1 0 -3 23 -5 51 l-4 52 41 10 c23 6 45 9 50 6 4 -3 8 -1 8 4 0
10 134 48 158 46 6 -1 12 1 12 5 0 4 6 8 13 8 6 0 55 13 107 28 52 15 107 29
123 32 53 10 84 82 57 133 -6 12 -62 35 -165 70 -85 28 -162 53 -172 55 -10 2
-30 8 -45 14 -16 6 -28 8 -28 5 0 -4 -6 -2 -12 3 -7 6 -26 14 -43 18 -45 12
-45 12 -47 15 -2 1 -10 3 -18 5 -8 1 -44 12 -80 24 -36 12 -130 41 -210 66
-80 25 -158 50 -175 56 -40 14 -44 15 -83 24 -18 4 -35 11 -38 16 -2 4 -11 6
-19 2 -8 -3 -15 0 -15 7 0 6 -4 9 -8 6 -4 -2 -54 11 -111 30 -57 19 -111 34
-120 34 -10 0 -21 4 -26 9 -14 13 -47 19 -70 14z m121 -199 c155 -51 267 -86
284 -88 8 -1 25 -8 37 -14 12 -7 26 -11 30 -10 4 2 22 -2 38 -9 43 -16 441
-143 462 -148 37 -7 124 -38 128 -46 3 -4 -11 -13 -32 -18 -21 -6 -92 -26
-157 -45 l-119 -34 -151 33 c-83 18 -171 36 -196 39 -25 4 -65 11 -90 16 -25
6 -72 12 -105 14 -33 3 -60 6 -60 7 0 10 -279 14 -350 5 -27 -3 -68 -8 -90
-11 -22 -3 -56 -7 -75 -10 -19 -3 -42 -5 -50 -6 -8 -1 -94 -17 -190 -36 -96
-20 -188 -37 -205 -39 -16 -1 -73 10 -125 26 -52 16 -115 34 -139 40 -42 11
-46 27 -10 34 8 2 21 6 29 9 8 3 76 24 150 47 74 23 173 55 219 71 46 16 86
27 89 24 3 -3 10 -1 16 4 11 8 79 33 103 37 25 4 411 128 449 143 1 1 50 -15
110 -35z m-1353 -453 c7 1 64 -15 72 -19 5 -4 16 -7 25 -8 31 -4 170 -43 190
-54 14 -8 18 -18 15 -38 -3 -15 -12 -89 -21 -165 -15 -132 -15 -139 2 -152 19
-13 21 -13 -141 -28 -18 -2 -20 5 -22 77 -1 43 -8 94 -14 114 -14 42 -92 123
-136 141 -33 13 -33 14 -33 82 l0 68 30 -9 c17 -5 31 -9 33 -9z m1402 -15 c40
-6 68 -10 159 -21 27 -3 57 -10 66 -15 10 -5 20 -7 22 -4 6 5 316 -61 324 -69
7 -6 13 -46 18 -112 2 -27 7 -84 11 -127 l7 -76 -89 -6 c-69 -5 -237 -38 -308
-60 -36 -12 -119 -49 -241 -111 l-141 -70 -94 57 c-52 31 -98 61 -104 66 -21
17 -170 74 -234 89 -82 18 -284 35 -330 27 l-34 -5 7 73 c15 168 19 198 25
198 4 0 6 13 3 28 -4 28 -2 29 65 45 94 23 255 55 273 56 8 0 34 5 58 11 24 6
47 8 52 5 5 -3 11 -1 14 3 3 5 21 8 41 7 19 -1 35 2 35 6 0 4 16 6 35 5 19 -2
35 0 35 3 0 8 266 5 325 -3z m-1496 -271 c33 -17 52 -58 47 -100 -2 -16 -4
-42 -5 -57 -1 -21 -6 -28 -21 -28 -23 0 -173 30 -179 35 -1 2 4 14 13 27 9 12
16 36 16 52 0 20 10 38 32 58 36 32 56 35 97 13z"/>
<path d="M2147 4214 c-2 -3 -63 -5 -136 -5 -72 -1 -134 -5 -137 -10 -3 -5 -15
-9 -26 -9 -68 0 -284 -102 -328 -155 -7 -8 -18 -15 -24 -15 -15 0 -135 -123
-162 -165 -10 -16 -21 -32 -24 -35 -11 -9 -87 -165 -100 -205 -7 -22 -16 -45
-21 -50 -4 -6 -9 -34 -10 -63 -2 -29 -5 -52 -9 -52 -11 0 -10 -183 1 -196 6
-7 12 -37 14 -66 4 -70 14 -108 36 -137 11 -13 19 -31 19 -39 0 -9 7 -23 16
-33 8 -9 17 -24 18 -33 2 -17 42 -74 88 -129 15 -18 28 -37 28 -44 0 -18 135
-136 187 -163 26 -13 51 -28 54 -32 7 -10 166 -68 199 -73 14 -2 36 -7 50 -10
43 -11 227 -13 277 -3 26 5 59 11 73 13 57 9 175 60 257 112 29 18 55 33 58
33 6 0 125 119 173 173 17 20 32 43 32 51 0 7 7 19 15 26 28 23 103 197 111
255 1 11 6 38 11 60 13 52 9 272 -5 306 -6 15 -9 29 -6 31 6 7 -34 116 -67
181 -16 31 -27 57 -24 57 2 0 -7 12 -21 27 -13 14 -22 28 -20 30 2 3 -3 13
-12 22 -154 163 -191 194 -302 254 -36 19 -87 42 -115 52 -65 21 -163 44 -168
39z m133 -189 c83 -31 170 -83 170 -102 0 -7 4 -13 9 -13 10 0 111 -95 111
-104 0 -4 11 -19 24 -33 13 -14 30 -37 38 -52 7 -14 16 -28 19 -31 3 -3 18
-36 33 -73 25 -63 35 -105 39 -164 0 -13 4 -23 7 -23 10 0 3 -225 -8 -246 -6
-12 -9 -24 -6 -27 10 -9 -69 -188 -96 -218 -122 -134 -209 -208 -262 -224 -12
-4 -48 -18 -78 -33 -30 -14 -71 -26 -90 -27 -19 -2 -46 -7 -60 -12 -34 -13
-200 -9 -227 5 -12 7 -28 9 -36 6 -8 -3 -21 1 -28 9 -7 8 -21 12 -31 9 -33 -8
-248 111 -248 138 0 5 -15 25 -32 44 -44 45 -88 100 -104 128 -33 56 -73 149
-75 175 -2 15 -8 34 -13 41 -18 24 -14 251 5 322 30 111 73 203 115 244 8 9
13 16 10 16 -13 0 182 188 214 206 46 27 130 55 141 48 5 -3 9 -1 9 5 0 14 29
17 210 15 154 -1 170 -3 240 -29z"/>
<path d="M1908 3875 c-2 -2 -20 -5 -39 -6 -18 -2 -38 -5 -44 -8 -5 -2 -19 -6
-32 -7 -29 -3 -143 -54 -143 -65 0 -4 -8 -10 -19 -14 -10 -3 -37 -24 -60 -46
-50 -49 -56 -95 -16 -134 35 -36 83 -34 121 6 39 41 103 78 161 93 44 12 146
13 183 3 60 -16 70 -20 70 -29 0 -5 5 -6 10 -3 6 4 39 -22 74 -58 123 -124
146 -279 64 -426 -41 -74 -119 -147 -166 -156 -9 -2 -18 -4 -19 -5 -2 -2 -7
-4 -13 -5 -5 -1 -11 -3 -12 -5 -16 -12 -115 -16 -158 -6 -14 3 -35 8 -46 10
-30 6 -94 41 -125 68 -62 55 -119 170 -119 241 0 56 -30 105 -67 109 -75 9
-110 -36 -100 -127 6 -62 47 -195 60 -195 4 0 5 -4 2 -10 -3 -5 -2 -10 4 -10
5 0 13 -9 16 -20 7 -21 62 -81 121 -131 41 -35 150 -86 204 -95 177 -30 360
19 453 120 9 10 17 16 17 13 0 -12 34 27 72 83 95 140 115 351 47 498 -12 26
-22 50 -21 53 1 4 -8 15 -18 24 -11 10 -20 22 -20 27 0 13 -87 95 -138 130
-59 41 -145 69 -219 73 -34 2 -66 6 -71 9 -5 3 -11 3 -14 1z"/>
<path d="M1895 3565 c-47 -46 -24 -116 42 -130 51 -11 73 -24 74 -45 3 -41 24
-86 44 -94 51 -19 123 7 126 47 0 6 2 22 5 35 2 13 -1 33 -8 45 -7 12 -11 27
-10 32 1 6 -12 26 -28 45 -17 19 -30 39 -30 43 0 5 -4 5 -10 2 -5 -3 -10 -2
-10 3 0 16 -78 42 -126 42 -34 0 -51 -6 -69 -25z"/>
<path d="M3935 4205 c-5 -2 -39 -12 -75 -24 -36 -11 -98 -38 -137 -60 -40 -22
-73 -37 -73 -35 0 3 -6 -1 -14 -8 -8 -7 -37 -31 -66 -53 -77 -59 -176 -187
-227 -293 -25 -51 -46 -98 -47 -105 -1 -7 -5 -18 -9 -24 -5 -7 -5 -13 -1 -13
3 0 1 -7 -6 -15 -7 -8 -10 -21 -7 -30 4 -8 2 -17 -4 -20 -5 -4 -7 -11 -4 -16
4 -5 3 -15 -2 -21 -14 -24 -17 -240 -3 -255 2 -2 4 -12 5 -23 1 -11 3 -21 5
-22 1 -2 3 -17 4 -33 1 -17 6 -37 11 -45 5 -8 11 -22 12 -32 4 -23 66 -152 75
-156 4 -2 8 -9 8 -16 0 -14 87 -113 162 -184 44 -42 64 -56 143 -104 26 -16
112 -58 180 -88 21 -9 66 -20 101 -24 11 -1 27 -6 35 -11 15 -10 178 -15 194
-6 16 9 37 12 78 12 20 -1 37 4 37 9 0 6 8 10 18 10 28 0 97 27 185 72 45 23
84 42 87 43 3 0 10 4 17 8 19 12 54 -33 49 -62 -2 -15 1 -34 6 -44 5 -10 11
-26 13 -35 2 -9 7 -35 12 -57 10 -46 9 -355 -1 -430 -4 -27 -8 -64 -10 -80 -1
-17 -5 -36 -10 -43 -4 -7 -6 -16 -3 -19 3 -3 2 -15 -3 -27 -4 -13 -11 -39 -14
-58 -3 -19 -19 -76 -36 -126 -16 -49 -30 -99 -30 -110 0 -12 -4 -24 -10 -27
-5 -3 -10 -14 -10 -23 0 -9 -12 -28 -25 -41 -14 -12 -22 -27 -19 -32 3 -5 0
-9 -7 -9 -7 0 -10 -3 -6 -6 3 -3 -10 -32 -29 -64 -19 -32 -34 -64 -34 -70 0
-14 -69 -113 -82 -118 -4 -2 -8 -10 -8 -17 0 -7 -20 -31 -45 -53 -25 -22 -45
-45 -45 -51 0 -6 -5 -11 -11 -11 -6 0 -35 -25 -64 -55 -30 -30 -59 -55 -65
-55 -5 0 -10 -6 -10 -13 0 -17 -72 -85 -130 -123 -25 -16 -47 -32 -50 -35 -10
-12 -203 -115 -255 -136 -135 -56 -250 -90 -322 -97 -17 -2 -36 -7 -42 -11 -7
-4 -31 -8 -54 -10 -23 -2 -53 -7 -67 -12 -14 -5 -52 -7 -85 -5 -33 2 -71 3
-85 3 -14 0 -34 0 -45 0 -11 0 -27 0 -35 0 -112 -4 -195 0 -195 9 0 1 -12 3
-26 4 -14 2 -32 7 -40 12 -8 5 -22 9 -31 10 -10 1 -19 2 -20 4 -2 1 -17 3 -35
5 -17 2 -41 8 -52 15 -12 6 -21 9 -21 6 0 -7 -122 36 -209 73 -40 17 -82 31
-93 31 -11 0 -33 9 -49 21 -16 11 -29 17 -29 12 0 -4 -7 1 -16 12 -8 11 -17
18 -20 16 -7 -4 -159 94 -189 122 -11 11 -36 31 -55 46 -38 29 -179 169 -195
193 -5 8 -30 42 -55 74 -44 59 -44 59 -42 133 2 54 8 84 22 108 11 19 20 43
20 54 0 10 5 19 11 19 6 0 9 6 6 14 -3 7 1 23 9 35 8 11 13 21 10 21 -8 0 75
161 91 178 7 7 13 16 13 20 0 7 93 105 161 170 19 18 59 57 89 88 48 49 74 69
175 131 72 45 255 125 271 119 6 -2 21 2 33 10 11 8 21 12 21 8 0 -3 6 -1 14
5 8 7 36 14 63 16 26 2 50 5 53 6 3 1 8 1 13 0 4 0 7 3 7 7 0 4 17 7 39 6 74
-3 128 39 84 65 -10 6 -13 10 -8 11 15 0 68 -60 89 -103 11 -20 22 -37 26 -37
5 0 11 -11 14 -25 4 -14 11 -25 17 -25 6 0 7 -4 4 -10 -3 -6 -2 -10 4 -10 5 0
13 -9 16 -20 8 -27 49 -53 83 -54 34 -1 67 26 100 86 15 27 30 48 35 48 4 0 7
4 7 9 0 5 20 39 44 76 l44 67 21 -21 c18 -18 44 -27 111 -36 13 -2 55 -10 100
-19 58 -13 81 -20 86 -27 3 -5 10 -7 15 -3 5 3 16 0 24 -6 8 -7 15 -10 15 -7
0 8 122 -43 184 -77 27 -14 55 -26 62 -26 8 0 14 -4 14 -9 0 -5 8 -11 18 -14
58 -16 405 -315 414 -357 2 -8 11 -21 21 -28 9 -7 17 -17 17 -22 0 -12 78
-126 96 -141 34 -28 86 -8 102 39 7 22 4 35 -19 72 -15 25 -40 70 -55 100 -40
78 -215 263 -338 356 -39 30 -75 58 -81 62 -9 7 -130 77 -211 122 -17 9 -55
25 -85 35 -30 10 -58 21 -64 25 -10 7 -118 41 -132 42 -5 0 -26 6 -48 13 -22
6 -55 11 -73 10 -18 -1 -32 3 -32 10 0 6 -8 11 -17 12 -45 5 -63 8 -66 13 -1
3 17 37 41 77 32 53 42 78 38 99 -4 20 -52 75 -158 182 -84 84 -165 160 -180
168 -15 8 -44 13 -64 12 -32 -3 -49 -16 -134 -103 -214 -218 -240 -247 -240
-272 0 -14 24 -65 54 -113 31 -51 48 -86 38 -83 -9 4 -13 2 -9 -3 3 -6 -15 -9
-48 -7 -30 1 -57 -2 -60 -7 -4 -6 -11 -8 -16 -4 -12 7 -197 -49 -268 -82 -30
-14 -63 -26 -73 -27 -10 -1 -18 -4 -18 -7 0 -3 -15 -12 -32 -19 -34 -15 -146
-79 -163 -93 -5 -5 -21 -17 -34 -28 -13 -11 -27 -20 -31 -20 -4 0 -19 -12 -34
-26 -14 -15 -26 -24 -26 -20 0 4 -13 -6 -28 -21 -15 -15 -44 -42 -63 -59 -44
-41 -105 -107 -148 -164 -19 -25 -38 -47 -43 -48 -4 -2 -6 -8 -2 -13 3 -5 0
-9 -5 -9 -6 0 -11 -4 -11 -10 0 -5 -12 -26 -26 -47 -31 -45 -97 -173 -89 -173
3 0 -2 -11 -10 -24 -9 -13 -18 -34 -20 -46 -2 -12 -9 -28 -16 -36 -12 -14 -11
-16 -64 101 -17 38 -64 180 -70 214 -3 14 -7 37 -11 51 -3 14 -7 34 -8 45 -2
11 -4 20 -6 20 -3 0 -11 85 -11 123 0 17 -3 32 -7 32 -8 0 -5 270 3 320 4 19
8 53 9 75 2 22 6 47 10 56 10 23 4 40 -25 71 -29 30 -63 33 -93 9 -22 -19 -49
-78 -41 -91 3 -4 0 -21 -6 -37 -18 -44 -32 -440 -17 -449 5 -3 6 -9 3 -14 -3
-5 -1 -19 5 -30 6 -12 13 -49 14 -84 2 -34 10 -77 19 -96 10 -18 17 -50 17
-71 0 -20 4 -39 10 -41 5 -1 19 -32 31 -68 12 -36 28 -80 37 -98 9 -19 17 -41
18 -49 2 -9 9 -20 16 -24 7 -5 10 -9 5 -9 -4 0 -1 -10 8 -23 8 -13 12 -27 8
-30 -3 -4 2 -16 12 -27 19 -21 22 -25 74 -119 18 -33 49 -78 67 -100 19 -21
34 -44 34 -49 0 -6 3 -12 8 -14 4 -1 29 -30 56 -63 27 -33 90 -99 139 -148 50
-48 86 -87 82 -87 -5 0 20 -21 56 -47 35 -27 66 -51 67 -55 2 -5 10 -8 17 -8
15 0 30 -34 21 -48 -3 -5 3 -39 13 -75 11 -36 17 -68 13 -71 -3 -3 0 -6 6 -6
7 0 12 -13 12 -28 0 -16 3 -32 7 -36 4 -3 8 -17 10 -29 2 -12 9 -38 15 -57 13
-37 15 -44 17 -60 2 -14 56 -40 86 -40 15 0 36 11 50 25 19 21 22 34 19 71 -2
25 -6 49 -9 54 -4 6 -8 18 -10 27 -1 10 -11 44 -20 76 -9 32 -15 60 -13 62 2
2 44 -14 93 -36 149 -66 329 -121 440 -135 156 -19 224 -25 305 -25 87 0 275
14 275 21 0 0 21 3 46 5 26 2 64 9 85 15 22 6 52 14 68 16 31 6 155 46 201 65
17 7 32 13 35 14 3 0 14 6 25 12 11 6 23 11 28 12 4 0 23 8 43 16 51 21 57 19
49 -13 -4 -15 -8 -34 -9 -42 0 -8 -4 -17 -8 -20 -4 -3 -10 -23 -14 -45 -3 -21
-9 -48 -13 -59 -12 -35 -7 -63 16 -90 25 -28 69 -34 105 -15 20 11 54 77 44
86 -3 3 2 19 10 35 8 16 12 33 9 38 -3 6 -2 10 4 10 6 0 8 7 5 15 -4 8 -2 15
3 15 5 0 9 8 10 18 1 17 10 57 13 57 1 0 3 11 6 24 2 14 8 29 13 35 4 6 6 31
5 54 -3 37 -1 45 16 49 11 3 20 9 20 14 0 5 7 9 15 9 8 0 15 4 15 8 0 4 12 15
28 24 34 21 68 51 162 142 104 101 135 137 155 179 9 21 21 37 26 37 5 0 9 6
9 14 0 8 3 16 8 18 10 4 94 106 115 141 51 80 114 214 118 252 1 6 10 27 20
47 10 21 19 47 19 58 0 12 9 40 20 62 11 23 20 59 20 79 0 21 4 41 10 44 6 3
10 15 10 26 0 10 5 19 11 19 6 0 9 12 8 28 -2 15 -1 32 2 37 4 6 5 20 4 33 -1
12 1 22 5 22 3 0 7 10 8 23 5 53 8 413 4 421 -3 5 -7 30 -9 55 -2 25 -6 53
-10 61 -3 8 -7 29 -8 45 -1 17 -14 76 -29 132 -25 97 -26 104 -10 128 9 14 20
25 25 25 5 0 9 5 9 10 0 6 9 23 21 39 11 15 21 34 23 42 1 8 14 39 28 69 65
139 90 254 85 380 -5 117 -12 160 -33 207 -8 17 -17 46 -21 65 -3 18 -15 48
-25 66 -9 17 -15 32 -12 32 2 0 -4 10 -16 22 -11 12 -20 28 -20 35 0 7 -4 13
-8 13 -5 0 -15 12 -23 28 -19 36 -159 182 -175 182 -7 0 -17 6 -21 13 -8 13
-99 77 -109 77 -3 0 -33 13 -67 28 -34 15 -82 34 -107 41 -25 7 -54 17 -66 21
-20 8 -329 12 -349 5z m410 -167 c62 -24 136 -59 180 -87 41 -26 175 -150 175
-163 0 -4 18 -35 39 -68 44 -68 86 -181 78 -210 -3 -11 0 -21 7 -23 13 -4 18
-218 5 -257 -4 -14 -10 -38 -13 -55 -7 -42 -18 -78 -26 -90 -20 -26 -50 -87
-50 -101 0 -8 -51 -66 -114 -128 -85 -83 -132 -121 -182 -147 -38 -19 -68 -33
-68 -31 -1 1 -23 -4 -50 -12 -27 -8 -54 -12 -59 -9 -5 3 -13 0 -17 -7 -10 -16
-202 -21 -240 -7 -14 5 -39 10 -56 11 -17 2 -36 6 -42 10 -7 4 -25 10 -40 12
-30 6 -139 63 -171 91 -12 9 -21 23 -21 30 0 7 -5 13 -10 13 -11 0 -65 58
-114 122 -42 55 -90 138 -80 138 4 0 -1 9 -11 20 -10 11 -15 23 -12 26 3 4 0
19 -9 35 -8 16 -12 29 -9 29 4 0 3 6 -2 13 -13 21 -18 172 -9 257 7 64 35 169
50 189 5 7 11 19 12 26 3 18 83 126 136 183 73 78 226 172 303 185 47 9 77 16
81 20 2 2 70 2 151 1 103 -1 160 -6 188 -16z m-1125 -1401 c0 -4 -36 -64 -80
-133 -44 -69 -80 -129 -80 -133 0 -4 -9 -16 -19 -25 -18 -17 -21 -14 -67 61
-27 43 -51 80 -54 83 -3 3 -14 23 -25 44 -11 22 -24 45 -30 51 -5 6 -16 21
-23 33 -11 20 -5 29 85 121 l98 99 98 -96 c53 -53 97 -100 97 -105z m-436
-243 c3 -8 2 -12 -4 -9 -6 3 -10 10 -10 16 0 14 7 11 14 -7z"/>
<path d="M3986 3872 c-3 -5 -19 -7 -35 -6 -17 1 -34 -2 -37 -7 -3 -5 -9 -7
-14 -4 -21 13 -166 -63 -218 -114 -84 -85 25 -193 116 -116 17 14 35 25 41 25
6 0 11 4 11 9 0 8 56 32 85 36 6 1 12 3 15 4 14 8 142 6 146 -1 3 -5 9 -6 14
-3 5 3 20 0 32 -7 13 -6 28 -13 35 -14 7 -1 32 -16 57 -34 50 -36 97 -98 120
-156 20 -51 35 -149 25 -166 -4 -7 -9 -27 -12 -43 -15 -111 -130 -241 -227
-259 -14 -2 -25 -5 -25 -6 0 -6 -48 -12 -90 -11 -74 1 -95 4 -95 13 0 4 -3 7
-7 6 -20 -6 -93 35 -133 74 -79 78 -111 146 -116 243 -5 89 -25 119 -80 123
-32 2 -44 -2 -64 -23 -23 -24 -25 -34 -23 -104 2 -84 29 -179 71 -246 14 -22
25 -41 24 -43 -1 -1 28 -30 65 -64 130 -118 262 -157 453 -135 142 16 294 126
369 267 18 33 32 62 31 65 0 3 0 6 1 8 1 3 9 35 12 50 1 6 5 17 8 22 5 8 3 83
-4 208 0 15 -5 27 -11 27 -5 0 -6 3 -3 7 4 3 2 12 -4 20 -6 7 -9 13 -5 13 3 0
-8 28 -25 63 -71 139 -259 270 -399 275 -8 1 -34 3 -57 6 -23 3 -44 2 -47 -2z"/>
<path d="M3997 3615 c-24 -17 -38 -76 -24 -101 15 -28 39 -43 65 -44 41 0 60
-19 76 -74 12 -40 22 -57 39 -62 75 -25 128 10 127 84 -1 58 -56 160 -87 161
-7 1 -13 5 -13 10 0 15 -78 41 -123 41 -23 0 -50 -7 -60 -15z"/>
<path d="M1715 683 c-22 -19 -28 -33 -28 -65 0 -22 4 -43 9 -47 5 -3 10 -10
10 -16 7 -53 80 -281 96 -297 45 -45 138 -9 138 52 0 15 -13 72 -29 126 -27
95 -41 145 -42 161 0 5 -5 14 -11 20 -6 7 -8 19 -5 27 8 21 -34 54 -74 59 -27
3 -42 -2 -64 -20z"/>
<path d="M1473 657 c-33 -14 -41 -55 -26 -127 8 -36 16 -76 19 -89 3 -14 8
-29 12 -35 3 -6 8 -20 9 -31 7 -49 37 -132 57 -153 17 -20 28 -23 61 -19 46 7
84 45 79 80 -6 38 -9 52 -17 65 -5 6 -6 16 -2 21 3 5 1 12 -5 16 -6 4 -8 11
-5 16 4 5 2 9 -2 9 -5 0 -10 12 -11 26 -1 14 -5 31 -9 37 -4 7 -8 18 -9 27 -6
61 -49 164 -64 155 -6 -4 -10 -1 -10 5 0 12 -48 10 -77 -3z"/>
<path d="M4160 651 c-24 -16 -27 -21 -36 -68 -2 -12 -9 -35 -16 -50 -6 -16
-12 -35 -13 -43 -1 -8 -14 -54 -28 -101 -15 -48 -27 -98 -27 -111 0 -60 73
-95 130 -61 17 9 30 20 31 23 3 24 14 65 53 198 38 128 43 157 34 182 -5 17
-16 30 -24 30 -8 0 -14 4 -14 10 0 15 -62 9 -90 -9z"/>
<path d="M4452 651 c-19 -14 -59 -118 -66 -171 -1 -9 -5 -20 -8 -25 -8 -13
-20 -74 -16 -78 2 -2 -3 -11 -11 -21 -8 -9 -11 -19 -8 -23 4 -3 2 -14 -4 -25
-13 -24 3 -74 28 -94 43 -32 118 -6 128 44 2 11 9 30 15 41 6 12 8 21 4 21 -3
0 -1 6 5 13 6 8 8 17 4 20 -3 4 0 13 7 22 7 8 9 15 5 15 -4 0 -3 6 2 13 6 6
11 19 11 27 1 28 34 135 45 149 9 11 9 15 0 18 -7 3 -13 11 -13 19 0 42 -88
66 -128 35z"/>
</g>
</svg>
